# xmcd CD database file
#
# Track frame offsets:
#	150
#	16365
#	33617
#	49300
#	54802
#	72726
#	92170
#	111662
#	128294
#	148082
#	164735
#	180827
#	193161
#	210395
#
# Disc length: 2967 seconds
#
# Revision: 2
# Processed by: cddbd v1.5.2PL0 Copyright (c) Steve Scherf et al.
# Submitted via: CDex 1.70beta3
#
DISCID=cd0b950e
DTITLE=Kelly Sweet - We Are One
DYEAR=2007
DGENRE=Jazz
TTITLE0=We Are One
TTITLE1=Raincoat
TTITLE2=Dreame On
TTITLE3=Caresse Sur L'Ocean
TTITLE4=Crush
TTITLE5=Ready For Love
TTITLE6=Giorno Dopo Giorno
TTITLE7=I Will Be Waiting
TTITLE8=Now We Are Free
TTITLE9=How 'bout You
TTITLE10=Love Song
TTITLE11=Je T'Aime
TTITLE12=Etenity
TTITLE13=Nella Fantasia
EXTD=YEAR: 2007
EXTT0=
EXTT1=
EXTT2=
EXTT3=
EXTT4=
EXTT5=
EXTT6=
EXTT7=
EXTT8=
EXTT9=
EXTT10=
EXTT11=
EXTT12=
EXTT13=
PLAYORDER=
